<mxfile host="app.diagrams.net" agent="Mozilla/5.0 (X11; Linux x86_64; rv:135.0) Gecko/20100101 Firefox/135.0" version="26.0.16">
  <diagram name="第 1 页" id="lpWYvaWg-q8um6RQc2xL">
    <mxGraphModel dx="2491" dy="865" grid="1" gridSize="10" guides="1" tooltips="1" connect="1" arrows="1" fold="1" page="1" pageScale="1" pageWidth="827" pageHeight="1169" math="0" shadow="0">
      <root>
        <mxCell id="0" />
        <mxCell id="1" parent="0" />
        <mxCell id="fOTzNF9ZoH67ZwEuSUzL-209" value="" style="rounded=0;whiteSpace=wrap;html=1;strokeWidth=2;" parent="1" vertex="1">
          <mxGeometry x="50" y="640" width="920" height="320" as="geometry" />
        </mxCell>
        <mxCell id="fOTzNF9ZoH67ZwEuSUzL-86" value="&lt;b&gt;&lt;font style=&quot;font-size: 16px;&quot;&gt;&lt;i&gt;Input&lt;/i&gt;&lt;/font&gt;&lt;/b&gt;" style="rounded=0;whiteSpace=wrap;html=1;" parent="1" vertex="1">
          <mxGeometry x="-82.5" y="732.5" width="60" height="100" as="geometry" />
        </mxCell>
        <mxCell id="fOTzNF9ZoH67ZwEuSUzL-87" value="&lt;b&gt;&lt;font style=&quot;font-size: 19px;&quot;&gt;W&lt;sub&gt;1&lt;/sub&gt;&lt;/font&gt;&lt;/b&gt;" style="rounded=0;whiteSpace=wrap;html=1;fillColor=#d5e8d4;strokeColor=#82b366;" parent="1" vertex="1">
          <mxGeometry x="266.25" y="690" width="92.5" height="70" as="geometry" />
        </mxCell>
        <mxCell id="fOTzNF9ZoH67ZwEuSUzL-89" value="&lt;b&gt;&lt;font style=&quot;font-size: 19px;&quot;&gt;W&lt;sub&gt;1&lt;/sub&gt;&lt;/font&gt;&lt;/b&gt;" style="rounded=0;whiteSpace=wrap;html=1;fillColor=#d5e8d4;strokeColor=#82b366;" parent="1" vertex="1">
          <mxGeometry x="266.25" y="820" width="92.5" height="70" as="geometry" />
        </mxCell>
        <mxCell id="fOTzNF9ZoH67ZwEuSUzL-91" value="" style="endArrow=none;dashed=1;html=1;rounded=0;strokeWidth=2;fillColor=#0050ef;strokeColor=#001DBC;" parent="1" edge="1">
          <mxGeometry width="50" height="50" relative="1" as="geometry">
            <mxPoint x="170" y="794" as="sourcePoint" />
            <mxPoint x="940" y="794" as="targetPoint" />
          </mxGeometry>
        </mxCell>
        <mxCell id="fOTzNF9ZoH67ZwEuSUzL-92" value="&lt;b&gt;&lt;font style=&quot;font-size: 17px;&quot;&gt;GPU0&lt;/font&gt;&lt;/b&gt;" style="text;html=1;align=center;verticalAlign=middle;whiteSpace=wrap;rounded=0;" parent="1" vertex="1">
          <mxGeometry x="426.25" y="670" width="60" height="30" as="geometry" />
        </mxCell>
        <mxCell id="fOTzNF9ZoH67ZwEuSUzL-93" value="&lt;b&gt;&lt;font style=&quot;font-size: 17px;&quot;&gt;GPU1&lt;/font&gt;&lt;/b&gt;" style="text;html=1;align=center;verticalAlign=middle;whiteSpace=wrap;rounded=0;" parent="1" vertex="1">
          <mxGeometry x="416.25" y="897.4" width="60" height="30" as="geometry" />
        </mxCell>
        <mxCell id="fOTzNF9ZoH67ZwEuSUzL-100" value="" style="shape=table;startSize=0;container=1;collapsible=0;childLayout=tableLayout;fillColor=#fff2cc;strokeColor=#d6b656;" parent="1" vertex="1">
          <mxGeometry x="402.5" y="710" width="87.5" height="35" as="geometry" />
        </mxCell>
        <mxCell id="fOTzNF9ZoH67ZwEuSUzL-101" value="" style="shape=tableRow;horizontal=0;startSize=0;swimlaneHead=0;swimlaneBody=0;strokeColor=inherit;top=0;left=0;bottom=0;right=0;collapsible=0;dropTarget=0;fillColor=none;points=[[0,0.5],[1,0.5]];portConstraint=eastwest;" parent="fOTzNF9ZoH67ZwEuSUzL-100" vertex="1">
          <mxGeometry width="87.5" height="35" as="geometry" />
        </mxCell>
        <mxCell id="fOTzNF9ZoH67ZwEuSUzL-102" value="&lt;b&gt;activation&lt;/b&gt;" style="shape=partialRectangle;html=1;whiteSpace=wrap;connectable=0;strokeColor=#d6b656;overflow=hidden;fillColor=#fff2cc;top=0;left=0;bottom=0;right=0;pointerEvents=1;" parent="fOTzNF9ZoH67ZwEuSUzL-101" vertex="1">
          <mxGeometry width="88" height="35" as="geometry">
            <mxRectangle width="88" height="35" as="alternateBounds" />
          </mxGeometry>
        </mxCell>
        <mxCell id="fOTzNF9ZoH67ZwEuSUzL-103" value="" style="shape=table;startSize=0;container=1;collapsible=0;childLayout=tableLayout;fillColor=#dae8fc;strokeColor=#6c8ebf;" parent="1" vertex="1">
          <mxGeometry x="402.5" y="837.5" width="87.5" height="35" as="geometry" />
        </mxCell>
        <mxCell id="fOTzNF9ZoH67ZwEuSUzL-104" value="" style="shape=tableRow;horizontal=0;startSize=0;swimlaneHead=0;swimlaneBody=0;strokeColor=#6c8ebf;top=0;left=0;bottom=0;right=0;collapsible=0;dropTarget=0;fillColor=#dae8fc;points=[[0,0.5],[1,0.5]];portConstraint=eastwest;" parent="fOTzNF9ZoH67ZwEuSUzL-103" vertex="1">
          <mxGeometry width="87.5" height="35" as="geometry" />
        </mxCell>
        <mxCell id="fOTzNF9ZoH67ZwEuSUzL-105" value="&lt;b&gt;activation&lt;/b&gt;" style="shape=partialRectangle;html=1;whiteSpace=wrap;connectable=0;strokeColor=#6c8ebf;overflow=hidden;fillColor=#dae8fc;top=0;left=0;bottom=0;right=0;pointerEvents=1;" parent="fOTzNF9ZoH67ZwEuSUzL-104" vertex="1">
          <mxGeometry width="88" height="35" as="geometry">
            <mxRectangle width="88" height="35" as="alternateBounds" />
          </mxGeometry>
        </mxCell>
        <mxCell id="fOTzNF9ZoH67ZwEuSUzL-106" value="&lt;b&gt;&lt;font style=&quot;font-size: 19px;&quot;&gt;W&lt;sub&gt;2&lt;/sub&gt;&lt;/font&gt;&lt;/b&gt;" style="rounded=0;whiteSpace=wrap;html=1;fillColor=#f8cecc;strokeColor=#b85450;" parent="1" vertex="1">
          <mxGeometry x="543.62" y="690" width="92.5" height="70" as="geometry" />
        </mxCell>
        <mxCell id="fOTzNF9ZoH67ZwEuSUzL-107" value="&lt;b&gt;&lt;font style=&quot;font-size: 19px;&quot;&gt;W&lt;sub&gt;2&lt;/sub&gt;&lt;/font&gt;&lt;/b&gt;" style="rounded=0;whiteSpace=wrap;html=1;fillColor=#f8cecc;strokeColor=#b85450;" parent="1" vertex="1">
          <mxGeometry x="543.63" y="820" width="92.5" height="70" as="geometry" />
        </mxCell>
        <mxCell id="fOTzNF9ZoH67ZwEuSUzL-115" value="&lt;b&gt;&lt;font style=&quot;font-size: 16px;&quot;&gt;&lt;i&gt;Input&lt;sub&gt;2&lt;/sub&gt;&lt;/i&gt;&lt;/font&gt;&lt;/b&gt;" style="rounded=0;whiteSpace=wrap;html=1;fillColor=#dae8fc;strokeColor=#6c8ebf;" parent="1" vertex="1">
          <mxGeometry x="153.5" y="801.25" width="61.25" height="100" as="geometry" />
        </mxCell>
        <mxCell id="fOTzNF9ZoH67ZwEuSUzL-116" value="" style="shape=table;startSize=0;container=1;collapsible=0;childLayout=tableLayout;fillColor=#fff2cc;strokeColor=#d6b656;" parent="1" vertex="1">
          <mxGeometry x="672.5" y="710" width="87.5" height="35" as="geometry" />
        </mxCell>
        <mxCell id="fOTzNF9ZoH67ZwEuSUzL-117" value="" style="shape=tableRow;horizontal=0;startSize=0;swimlaneHead=0;swimlaneBody=0;strokeColor=inherit;top=0;left=0;bottom=0;right=0;collapsible=0;dropTarget=0;fillColor=none;points=[[0,0.5],[1,0.5]];portConstraint=eastwest;" parent="fOTzNF9ZoH67ZwEuSUzL-116" vertex="1">
          <mxGeometry width="87.5" height="35" as="geometry" />
        </mxCell>
        <mxCell id="fOTzNF9ZoH67ZwEuSUzL-118" value="&lt;b&gt;activation&lt;/b&gt;" style="shape=partialRectangle;html=1;whiteSpace=wrap;connectable=0;strokeColor=#d6b656;overflow=hidden;fillColor=#fff2cc;top=0;left=0;bottom=0;right=0;pointerEvents=1;" parent="fOTzNF9ZoH67ZwEuSUzL-117" vertex="1">
          <mxGeometry width="88" height="35" as="geometry">
            <mxRectangle width="88" height="35" as="alternateBounds" />
          </mxGeometry>
        </mxCell>
        <mxCell id="fOTzNF9ZoH67ZwEuSUzL-119" value="" style="shape=table;startSize=0;container=1;collapsible=0;childLayout=tableLayout;fillColor=#dae8fc;strokeColor=#6c8ebf;" parent="1" vertex="1">
          <mxGeometry x="672.5" y="835" width="87.5" height="35" as="geometry" />
        </mxCell>
        <mxCell id="fOTzNF9ZoH67ZwEuSUzL-120" value="" style="shape=tableRow;horizontal=0;startSize=0;swimlaneHead=0;swimlaneBody=0;strokeColor=#6c8ebf;top=0;left=0;bottom=0;right=0;collapsible=0;dropTarget=0;fillColor=#dae8fc;points=[[0,0.5],[1,0.5]];portConstraint=eastwest;" parent="fOTzNF9ZoH67ZwEuSUzL-119" vertex="1">
          <mxGeometry width="87.5" height="35" as="geometry" />
        </mxCell>
        <mxCell id="fOTzNF9ZoH67ZwEuSUzL-121" value="&lt;b&gt;activation&lt;/b&gt;" style="shape=partialRectangle;html=1;whiteSpace=wrap;connectable=0;strokeColor=#6c8ebf;overflow=hidden;fillColor=#dae8fc;top=0;left=0;bottom=0;right=0;pointerEvents=1;" parent="fOTzNF9ZoH67ZwEuSUzL-120" vertex="1">
          <mxGeometry width="88" height="35" as="geometry">
            <mxRectangle width="88" height="35" as="alternateBounds" />
          </mxGeometry>
        </mxCell>
        <mxCell id="fOTzNF9ZoH67ZwEuSUzL-123" value="&lt;b&gt;&lt;i&gt;batch_size&lt;/i&gt;&lt;/b&gt;" style="text;html=1;align=center;verticalAlign=middle;whiteSpace=wrap;rounded=0;" parent="1" vertex="1">
          <mxGeometry x="-160" y="842.5" width="87.5" height="30" as="geometry" />
        </mxCell>
        <mxCell id="fOTzNF9ZoH67ZwEuSUzL-125" value="&lt;i&gt;&lt;b&gt;seq_len&lt;/b&gt;&lt;/i&gt;" style="text;html=1;align=center;verticalAlign=middle;whiteSpace=wrap;rounded=0;" parent="1" vertex="1">
          <mxGeometry x="-142.5" y="767.5" width="60" height="30" as="geometry" />
        </mxCell>
        <mxCell id="fOTzNF9ZoH67ZwEuSUzL-126" value="&lt;i&gt;&lt;b&gt;dim_em&lt;/b&gt;&lt;/i&gt;" style="text;html=1;align=center;verticalAlign=middle;whiteSpace=wrap;rounded=0;" parent="1" vertex="1">
          <mxGeometry x="-82.5" y="702.5" width="60" height="30" as="geometry" />
        </mxCell>
        <mxCell id="fOTzNF9ZoH67ZwEuSUzL-127" value="&lt;b&gt;&lt;font style=&quot;font-size: 16px;&quot;&gt;&lt;i&gt;Input&lt;/i&gt;&lt;/font&gt;&lt;/b&gt;" style="rounded=0;whiteSpace=wrap;html=1;" parent="1" vertex="1">
          <mxGeometry x="-72.5" y="742.5" width="60" height="100" as="geometry" />
        </mxCell>
        <mxCell id="fOTzNF9ZoH67ZwEuSUzL-128" value="&lt;b&gt;&lt;font style=&quot;font-size: 16px;&quot;&gt;&lt;i&gt;Input&lt;/i&gt;&lt;/font&gt;&lt;/b&gt;" style="rounded=0;whiteSpace=wrap;html=1;" parent="1" vertex="1">
          <mxGeometry x="-62.5" y="752.5" width="60" height="100" as="geometry" />
        </mxCell>
        <mxCell id="fOTzNF9ZoH67ZwEuSUzL-129" value="" style="strokeWidth=2;html=1;shape=mxgraph.flowchart.annotation_1;align=left;pointerEvents=1;rotation=-45;" parent="1" vertex="1">
          <mxGeometry x="-80.52" y="826.07" width="10" height="45.61" as="geometry" />
        </mxCell>
        <mxCell id="fOTzNF9ZoH67ZwEuSUzL-130" value="&lt;b&gt;&lt;font style=&quot;font-size: 16px;&quot;&gt;&lt;i&gt;Input&lt;sub&gt;1&lt;/sub&gt;&lt;/i&gt;&lt;/font&gt;&lt;/b&gt;" style="rounded=0;whiteSpace=wrap;html=1;fillColor=#fff2cc;strokeColor=#d6b656;" parent="1" vertex="1">
          <mxGeometry x="153.5" y="673.75" width="60" height="100" as="geometry" />
        </mxCell>
        <mxCell id="fOTzNF9ZoH67ZwEuSUzL-132" value="&lt;b&gt;&lt;font style=&quot;font-size: 16px;&quot;&gt;&lt;i&gt;Input&lt;/i&gt;&lt;/font&gt;&lt;/b&gt;" style="rounded=0;whiteSpace=wrap;html=1;" parent="1" vertex="1">
          <mxGeometry x="-52.5" y="762.5" width="60" height="100" as="geometry" />
        </mxCell>
        <mxCell id="fOTzNF9ZoH67ZwEuSUzL-133" value="&lt;b&gt;&lt;font style=&quot;font-size: 16px;&quot;&gt;&lt;i&gt;Input&lt;sub&gt;1&lt;/sub&gt;&lt;/i&gt;&lt;/font&gt;&lt;/b&gt;" style="rounded=0;whiteSpace=wrap;html=1;fillColor=#fff2cc;strokeColor=#d6b656;" parent="1" vertex="1">
          <mxGeometry x="163.5" y="683.75" width="60" height="100" as="geometry" />
        </mxCell>
        <mxCell id="fOTzNF9ZoH67ZwEuSUzL-134" value="&lt;b&gt;&lt;font style=&quot;font-size: 16px;&quot;&gt;&lt;i&gt;Input&lt;sub&gt;2&lt;/sub&gt;&lt;/i&gt;&lt;/font&gt;&lt;/b&gt;" style="rounded=0;whiteSpace=wrap;html=1;fillColor=#dae8fc;strokeColor=#6c8ebf;" parent="1" vertex="1">
          <mxGeometry x="163.5" y="811.25" width="61.25" height="100" as="geometry" />
        </mxCell>
        <mxCell id="fOTzNF9ZoH67ZwEuSUzL-135" value="" style="strokeWidth=2;html=1;shape=mxgraph.flowchart.annotation_1;align=left;pointerEvents=1;rotation=-45;" parent="1" vertex="1">
          <mxGeometry x="143.5" y="771.25" width="10" height="22.29" as="geometry" />
        </mxCell>
        <mxCell id="fOTzNF9ZoH67ZwEuSUzL-136" value="&lt;b&gt;&lt;i&gt;micro_size&lt;/i&gt;&lt;/b&gt;" style="text;html=1;align=center;verticalAlign=middle;whiteSpace=wrap;rounded=0;" parent="1" vertex="1">
          <mxGeometry x="62.25" y="781.25" width="87.5" height="30" as="geometry" />
        </mxCell>
        <mxCell id="fOTzNF9ZoH67ZwEuSUzL-137" value="" style="strokeWidth=2;html=1;shape=mxgraph.flowchart.annotation_1;align=left;pointerEvents=1;rotation=-45;" parent="1" vertex="1">
          <mxGeometry x="149.75" y="901.25" width="10" height="22.29" as="geometry" />
        </mxCell>
        <mxCell id="fOTzNF9ZoH67ZwEuSUzL-138" value="&lt;b&gt;&lt;i&gt;micro_size&lt;/i&gt;&lt;/b&gt;" style="text;html=1;align=center;verticalAlign=middle;whiteSpace=wrap;rounded=0;" parent="1" vertex="1">
          <mxGeometry x="61" y="901.25" width="87.5" height="30" as="geometry" />
        </mxCell>
        <mxCell id="fOTzNF9ZoH67ZwEuSUzL-139" value="" style="strokeWidth=2;html=1;shape=mxgraph.flowchart.annotation_2;align=left;labelPosition=right;pointerEvents=1;" parent="1" vertex="1">
          <mxGeometry y="673.75" width="82.5" height="260" as="geometry" />
        </mxCell>
        <mxCell id="fOTzNF9ZoH67ZwEuSUzL-140" value="" style="shape=table;startSize=0;container=1;collapsible=0;childLayout=tableLayout;fillColor=#fff2cc;strokeColor=#d6b656;" parent="1" vertex="1">
          <mxGeometry x="412.5" y="720" width="87.5" height="35" as="geometry" />
        </mxCell>
        <mxCell id="fOTzNF9ZoH67ZwEuSUzL-141" value="" style="shape=tableRow;horizontal=0;startSize=0;swimlaneHead=0;swimlaneBody=0;strokeColor=inherit;top=0;left=0;bottom=0;right=0;collapsible=0;dropTarget=0;fillColor=none;points=[[0,0.5],[1,0.5]];portConstraint=eastwest;" parent="fOTzNF9ZoH67ZwEuSUzL-140" vertex="1">
          <mxGeometry width="87.5" height="35" as="geometry" />
        </mxCell>
        <mxCell id="fOTzNF9ZoH67ZwEuSUzL-142" value="&lt;b&gt;activation&lt;/b&gt;" style="shape=partialRectangle;html=1;whiteSpace=wrap;connectable=0;strokeColor=#d6b656;overflow=hidden;fillColor=#fff2cc;top=0;left=0;bottom=0;right=0;pointerEvents=1;" parent="fOTzNF9ZoH67ZwEuSUzL-141" vertex="1">
          <mxGeometry width="88" height="35" as="geometry">
            <mxRectangle width="88" height="35" as="alternateBounds" />
          </mxGeometry>
        </mxCell>
        <mxCell id="fOTzNF9ZoH67ZwEuSUzL-143" value="" style="shape=table;startSize=0;container=1;collapsible=0;childLayout=tableLayout;fillColor=#dae8fc;strokeColor=#6c8ebf;" parent="1" vertex="1">
          <mxGeometry x="412.5" y="847.5" width="87.5" height="35" as="geometry" />
        </mxCell>
        <mxCell id="fOTzNF9ZoH67ZwEuSUzL-144" value="" style="shape=tableRow;horizontal=0;startSize=0;swimlaneHead=0;swimlaneBody=0;strokeColor=#6c8ebf;top=0;left=0;bottom=0;right=0;collapsible=0;dropTarget=0;fillColor=#dae8fc;points=[[0,0.5],[1,0.5]];portConstraint=eastwest;" parent="fOTzNF9ZoH67ZwEuSUzL-143" vertex="1">
          <mxGeometry width="87.5" height="35" as="geometry" />
        </mxCell>
        <mxCell id="fOTzNF9ZoH67ZwEuSUzL-145" value="&lt;b&gt;activation&lt;/b&gt;" style="shape=partialRectangle;html=1;whiteSpace=wrap;connectable=0;strokeColor=#6c8ebf;overflow=hidden;fillColor=#dae8fc;top=0;left=0;bottom=0;right=0;pointerEvents=1;" parent="fOTzNF9ZoH67ZwEuSUzL-144" vertex="1">
          <mxGeometry width="88" height="35" as="geometry">
            <mxRectangle width="88" height="35" as="alternateBounds" />
          </mxGeometry>
        </mxCell>
        <mxCell id="fOTzNF9ZoH67ZwEuSUzL-146" value="" style="shape=table;startSize=0;container=1;collapsible=0;childLayout=tableLayout;fillColor=#fff2cc;strokeColor=#d6b656;" parent="1" vertex="1">
          <mxGeometry x="683.5" y="720" width="87.5" height="35" as="geometry" />
        </mxCell>
        <mxCell id="fOTzNF9ZoH67ZwEuSUzL-147" value="" style="shape=tableRow;horizontal=0;startSize=0;swimlaneHead=0;swimlaneBody=0;strokeColor=inherit;top=0;left=0;bottom=0;right=0;collapsible=0;dropTarget=0;fillColor=none;points=[[0,0.5],[1,0.5]];portConstraint=eastwest;" parent="fOTzNF9ZoH67ZwEuSUzL-146" vertex="1">
          <mxGeometry width="87.5" height="35" as="geometry" />
        </mxCell>
        <mxCell id="fOTzNF9ZoH67ZwEuSUzL-148" value="&lt;b&gt;activation&lt;/b&gt;" style="shape=partialRectangle;html=1;whiteSpace=wrap;connectable=0;strokeColor=#d6b656;overflow=hidden;fillColor=#fff2cc;top=0;left=0;bottom=0;right=0;pointerEvents=1;" parent="fOTzNF9ZoH67ZwEuSUzL-147" vertex="1">
          <mxGeometry width="88" height="35" as="geometry">
            <mxRectangle width="88" height="35" as="alternateBounds" />
          </mxGeometry>
        </mxCell>
        <mxCell id="fOTzNF9ZoH67ZwEuSUzL-149" value="&lt;b&gt;activation&lt;/b&gt;" style="shape=partialRectangle;html=1;whiteSpace=wrap;connectable=0;strokeColor=#6C8EBF;overflow=hidden;fillColor=#dae8fc;top=0;left=0;bottom=0;right=0;pointerEvents=1;" parent="1" vertex="1">
          <mxGeometry x="683.5" y="842.5" width="88" height="35" as="geometry">
            <mxRectangle width="88" height="35" as="alternateBounds" />
          </mxGeometry>
        </mxCell>
        <mxCell id="fOTzNF9ZoH67ZwEuSUzL-150" value="" style="endArrow=none;dashed=1;html=1;dashPattern=1 3;strokeWidth=3;rounded=0;" parent="1" edge="1">
          <mxGeometry width="50" height="50" relative="1" as="geometry">
            <mxPoint x="797" y="737.21" as="sourcePoint" />
            <mxPoint x="827" y="737.21" as="targetPoint" />
          </mxGeometry>
        </mxCell>
        <mxCell id="fOTzNF9ZoH67ZwEuSUzL-151" value="" style="endArrow=none;dashed=1;html=1;dashPattern=1 3;strokeWidth=3;rounded=0;" parent="1" edge="1">
          <mxGeometry width="50" height="50" relative="1" as="geometry">
            <mxPoint x="797" y="857.3000000000001" as="sourcePoint" />
            <mxPoint x="827" y="857.3000000000001" as="targetPoint" />
          </mxGeometry>
        </mxCell>
        <mxCell id="fOTzNF9ZoH67ZwEuSUzL-174" value="" style="shape=table;startSize=0;container=1;collapsible=0;childLayout=tableLayout;fillColor=#fff2cc;strokeColor=#d6b656;" parent="1" vertex="1">
          <mxGeometry x="848" y="711.25" width="87.5" height="35" as="geometry" />
        </mxCell>
        <mxCell id="fOTzNF9ZoH67ZwEuSUzL-175" value="" style="shape=tableRow;horizontal=0;startSize=0;swimlaneHead=0;swimlaneBody=0;strokeColor=inherit;top=0;left=0;bottom=0;right=0;collapsible=0;dropTarget=0;fillColor=none;points=[[0,0.5],[1,0.5]];portConstraint=eastwest;" parent="fOTzNF9ZoH67ZwEuSUzL-174" vertex="1">
          <mxGeometry width="87.5" height="35" as="geometry" />
        </mxCell>
        <mxCell id="fOTzNF9ZoH67ZwEuSUzL-176" value="&lt;b&gt;activation&lt;/b&gt;" style="shape=partialRectangle;html=1;whiteSpace=wrap;connectable=0;strokeColor=#d6b656;overflow=hidden;fillColor=#fff2cc;top=0;left=0;bottom=0;right=0;pointerEvents=1;" parent="fOTzNF9ZoH67ZwEuSUzL-175" vertex="1">
          <mxGeometry width="88" height="35" as="geometry">
            <mxRectangle width="88" height="35" as="alternateBounds" />
          </mxGeometry>
        </mxCell>
        <mxCell id="fOTzNF9ZoH67ZwEuSUzL-185" style="edgeStyle=orthogonalEdgeStyle;rounded=0;orthogonalLoop=1;jettySize=auto;html=1;exitX=1;exitY=0.5;exitDx=0;exitDy=0;entryX=0.5;entryY=0;entryDx=0;entryDy=0;" parent="1" source="fOTzNF9ZoH67ZwEuSUzL-177" target="fOTzNF9ZoH67ZwEuSUzL-184" edge="1">
          <mxGeometry relative="1" as="geometry" />
        </mxCell>
        <mxCell id="fOTzNF9ZoH67ZwEuSUzL-177" value="" style="shape=table;startSize=0;container=1;collapsible=0;childLayout=tableLayout;fillColor=#fff2cc;strokeColor=#d6b656;" parent="1" vertex="1">
          <mxGeometry x="859" y="721.25" width="87.5" height="35" as="geometry" />
        </mxCell>
        <mxCell id="fOTzNF9ZoH67ZwEuSUzL-178" value="" style="shape=tableRow;horizontal=0;startSize=0;swimlaneHead=0;swimlaneBody=0;strokeColor=inherit;top=0;left=0;bottom=0;right=0;collapsible=0;dropTarget=0;fillColor=none;points=[[0,0.5],[1,0.5]];portConstraint=eastwest;" parent="fOTzNF9ZoH67ZwEuSUzL-177" vertex="1">
          <mxGeometry width="87.5" height="35" as="geometry" />
        </mxCell>
        <mxCell id="fOTzNF9ZoH67ZwEuSUzL-179" value="&lt;b&gt;output&lt;/b&gt;" style="shape=partialRectangle;html=1;whiteSpace=wrap;connectable=0;strokeColor=#d6b656;overflow=hidden;fillColor=#fff2cc;top=0;left=0;bottom=0;right=0;pointerEvents=1;" parent="fOTzNF9ZoH67ZwEuSUzL-178" vertex="1">
          <mxGeometry width="88" height="35" as="geometry">
            <mxRectangle width="88" height="35" as="alternateBounds" />
          </mxGeometry>
        </mxCell>
        <mxCell id="fOTzNF9ZoH67ZwEuSUzL-184" value="&lt;b&gt;&lt;i&gt;Reduce&lt;/i&gt;&lt;/b&gt;" style="text;html=1;align=center;verticalAlign=middle;whiteSpace=wrap;rounded=0;" parent="1" vertex="1">
          <mxGeometry x="965" y="781.25" width="60" height="30" as="geometry" />
        </mxCell>
        <mxCell id="fOTzNF9ZoH67ZwEuSUzL-190" value="" style="shape=table;startSize=0;container=1;collapsible=0;childLayout=tableLayout;fillColor=#dae8fc;strokeColor=#6c8ebf;" parent="1" vertex="1">
          <mxGeometry x="853.5" y="837.5" width="87.5" height="35" as="geometry" />
        </mxCell>
        <mxCell id="fOTzNF9ZoH67ZwEuSUzL-191" value="" style="shape=tableRow;horizontal=0;startSize=0;swimlaneHead=0;swimlaneBody=0;strokeColor=inherit;top=0;left=0;bottom=0;right=0;collapsible=0;dropTarget=0;fillColor=none;points=[[0,0.5],[1,0.5]];portConstraint=eastwest;" parent="fOTzNF9ZoH67ZwEuSUzL-190" vertex="1">
          <mxGeometry width="87.5" height="35" as="geometry" />
        </mxCell>
        <mxCell id="fOTzNF9ZoH67ZwEuSUzL-192" value="&lt;b&gt;activation&lt;/b&gt;" style="shape=partialRectangle;html=1;whiteSpace=wrap;connectable=0;strokeColor=#6c8ebf;overflow=hidden;fillColor=#dae8fc;top=0;left=0;bottom=0;right=0;pointerEvents=1;" parent="fOTzNF9ZoH67ZwEuSUzL-191" vertex="1">
          <mxGeometry width="88" height="35" as="geometry">
            <mxRectangle width="88" height="35" as="alternateBounds" />
          </mxGeometry>
        </mxCell>
        <mxCell id="fOTzNF9ZoH67ZwEuSUzL-196" style="edgeStyle=orthogonalEdgeStyle;rounded=0;orthogonalLoop=1;jettySize=auto;html=1;exitX=1;exitY=0.5;exitDx=0;exitDy=0;" parent="1" source="fOTzNF9ZoH67ZwEuSUzL-193" target="fOTzNF9ZoH67ZwEuSUzL-184" edge="1">
          <mxGeometry relative="1" as="geometry" />
        </mxCell>
        <mxCell id="fOTzNF9ZoH67ZwEuSUzL-193" value="" style="shape=table;startSize=0;container=1;collapsible=0;childLayout=tableLayout;fillColor=#dae8fc;strokeColor=#6c8ebf;" parent="1" vertex="1">
          <mxGeometry x="864.5" y="847.5" width="87.5" height="35" as="geometry" />
        </mxCell>
        <mxCell id="fOTzNF9ZoH67ZwEuSUzL-194" value="" style="shape=tableRow;horizontal=0;startSize=0;swimlaneHead=0;swimlaneBody=0;strokeColor=inherit;top=0;left=0;bottom=0;right=0;collapsible=0;dropTarget=0;fillColor=none;points=[[0,0.5],[1,0.5]];portConstraint=eastwest;" parent="fOTzNF9ZoH67ZwEuSUzL-193" vertex="1">
          <mxGeometry width="87.5" height="35" as="geometry" />
        </mxCell>
        <mxCell id="fOTzNF9ZoH67ZwEuSUzL-195" value="&lt;b&gt;output&lt;/b&gt;" style="shape=partialRectangle;html=1;whiteSpace=wrap;connectable=0;strokeColor=#6c8ebf;overflow=hidden;fillColor=#dae8fc;top=0;left=0;bottom=0;right=0;pointerEvents=1;" parent="fOTzNF9ZoH67ZwEuSUzL-194" vertex="1">
          <mxGeometry width="88" height="35" as="geometry">
            <mxRectangle width="88" height="35" as="alternateBounds" />
          </mxGeometry>
        </mxCell>
        <mxCell id="fOTzNF9ZoH67ZwEuSUzL-197" value="" style="shape=table;startSize=0;container=1;collapsible=0;childLayout=tableLayout;fillColor=#fff2cc;strokeColor=#d6b656;" parent="1" vertex="1">
          <mxGeometry x="1025" y="760" width="87.5" height="35" as="geometry" />
        </mxCell>
        <mxCell id="fOTzNF9ZoH67ZwEuSUzL-198" value="" style="shape=tableRow;horizontal=0;startSize=0;swimlaneHead=0;swimlaneBody=0;strokeColor=inherit;top=0;left=0;bottom=0;right=0;collapsible=0;dropTarget=0;fillColor=none;points=[[0,0.5],[1,0.5]];portConstraint=eastwest;" parent="fOTzNF9ZoH67ZwEuSUzL-197" vertex="1">
          <mxGeometry width="87.5" height="35" as="geometry" />
        </mxCell>
        <mxCell id="fOTzNF9ZoH67ZwEuSUzL-199" value="&lt;b&gt;activation&lt;/b&gt;" style="shape=partialRectangle;html=1;whiteSpace=wrap;connectable=0;strokeColor=#d6b656;overflow=hidden;fillColor=#fff2cc;top=0;left=0;bottom=0;right=0;pointerEvents=1;" parent="fOTzNF9ZoH67ZwEuSUzL-198" vertex="1">
          <mxGeometry width="88" height="35" as="geometry">
            <mxRectangle width="88" height="35" as="alternateBounds" />
          </mxGeometry>
        </mxCell>
        <mxCell id="fOTzNF9ZoH67ZwEuSUzL-200" value="" style="shape=table;startSize=0;container=1;collapsible=0;childLayout=tableLayout;fillColor=#fff2cc;strokeColor=#d6b656;" parent="1" vertex="1">
          <mxGeometry x="1036" y="770" width="87.5" height="35" as="geometry" />
        </mxCell>
        <mxCell id="fOTzNF9ZoH67ZwEuSUzL-201" value="" style="shape=tableRow;horizontal=0;startSize=0;swimlaneHead=0;swimlaneBody=0;strokeColor=inherit;top=0;left=0;bottom=0;right=0;collapsible=0;dropTarget=0;fillColor=none;points=[[0,0.5],[1,0.5]];portConstraint=eastwest;" parent="fOTzNF9ZoH67ZwEuSUzL-200" vertex="1">
          <mxGeometry width="87.5" height="35" as="geometry" />
        </mxCell>
        <mxCell id="fOTzNF9ZoH67ZwEuSUzL-202" value="&lt;b&gt;output&lt;/b&gt;" style="shape=partialRectangle;html=1;whiteSpace=wrap;connectable=0;strokeColor=#d6b656;overflow=hidden;fillColor=#fff2cc;top=0;left=0;bottom=0;right=0;pointerEvents=1;" parent="fOTzNF9ZoH67ZwEuSUzL-201" vertex="1">
          <mxGeometry width="88" height="35" as="geometry">
            <mxRectangle width="88" height="35" as="alternateBounds" />
          </mxGeometry>
        </mxCell>
        <mxCell id="fOTzNF9ZoH67ZwEuSUzL-203" value="" style="shape=table;startSize=0;container=1;collapsible=0;childLayout=tableLayout;fillColor=#dae8fc;strokeColor=#6c8ebf;" parent="1" vertex="1">
          <mxGeometry x="1046" y="780" width="87.5" height="35" as="geometry" />
        </mxCell>
        <mxCell id="fOTzNF9ZoH67ZwEuSUzL-204" value="" style="shape=tableRow;horizontal=0;startSize=0;swimlaneHead=0;swimlaneBody=0;strokeColor=inherit;top=0;left=0;bottom=0;right=0;collapsible=0;dropTarget=0;fillColor=none;points=[[0,0.5],[1,0.5]];portConstraint=eastwest;" parent="fOTzNF9ZoH67ZwEuSUzL-203" vertex="1">
          <mxGeometry width="87.5" height="35" as="geometry" />
        </mxCell>
        <mxCell id="fOTzNF9ZoH67ZwEuSUzL-205" value="&lt;b&gt;output&lt;/b&gt;" style="shape=partialRectangle;html=1;whiteSpace=wrap;connectable=0;strokeColor=#6c8ebf;overflow=hidden;fillColor=#dae8fc;top=0;left=0;bottom=0;right=0;pointerEvents=1;" parent="fOTzNF9ZoH67ZwEuSUzL-204" vertex="1">
          <mxGeometry width="88" height="35" as="geometry">
            <mxRectangle width="88" height="35" as="alternateBounds" />
          </mxGeometry>
        </mxCell>
        <mxCell id="fOTzNF9ZoH67ZwEuSUzL-206" value="" style="shape=table;startSize=0;container=1;collapsible=0;childLayout=tableLayout;fillColor=#dae8fc;strokeColor=#6c8ebf;" parent="1" vertex="1">
          <mxGeometry x="1056" y="790" width="87.5" height="35" as="geometry" />
        </mxCell>
        <mxCell id="fOTzNF9ZoH67ZwEuSUzL-207" value="" style="shape=tableRow;horizontal=0;startSize=0;swimlaneHead=0;swimlaneBody=0;strokeColor=inherit;top=0;left=0;bottom=0;right=0;collapsible=0;dropTarget=0;fillColor=none;points=[[0,0.5],[1,0.5]];portConstraint=eastwest;" parent="fOTzNF9ZoH67ZwEuSUzL-206" vertex="1">
          <mxGeometry width="87.5" height="35" as="geometry" />
        </mxCell>
        <mxCell id="fOTzNF9ZoH67ZwEuSUzL-208" value="&lt;b&gt;output&lt;/b&gt;" style="shape=partialRectangle;html=1;whiteSpace=wrap;connectable=0;strokeColor=#6c8ebf;overflow=hidden;fillColor=#dae8fc;top=0;left=0;bottom=0;right=0;pointerEvents=1;" parent="fOTzNF9ZoH67ZwEuSUzL-207" vertex="1">
          <mxGeometry width="88" height="35" as="geometry">
            <mxRectangle width="88" height="35" as="alternateBounds" />
          </mxGeometry>
        </mxCell>
      </root>
    </mxGraphModel>
  </diagram>
</mxfile>
